<svg xmlns="http://www.w3.org/2000/svg" width="32" height="32"><path d="M16 9a7 7 0 1 0 0 14 7 7 0 0 0 0-14zm0-2c.6 0 1-.4 1-1V4a1 1 0 0 0-2 0v2c0 .6.4 1 1 1zm0 18a1 1 0 0 0-1 1v2a1 1 0 1 0 2 0v-2c0-.6-.4-1-1-1zm7.8-15.4l1.4-1.4a1 1 0 1 0-1.4-1.4l-1.4 1.4a1 1 0 1 0 1.4 1.4zM8.2 22.4l-1.4 1.4a1 1 0 1 0 1.4 1.4l1.4-1.4a1 1 0 1 0-1.4-1.4zM7 16c0-.6-.4-1-1-1H4a1 1 0 1 0 0 2h2c.6 0 1-.4 1-1zm21-1h-2a1 1 0 1 0 0 2h2a1 1 0 1 0 0-2zM8.2 9.6a1 1 0 1 0 1.4-1.4L8.2 6.8a1 1 0 1 0-1.4 1.4l1.4 1.4zm15.6 12.8a1 1 0 1 0-1.4 1.4l1.4 1.4a1 1 0 1 0 1.4-1.4l-1.4-1.4z" fill="#4cafef"/></svg>
